<?xml version="1.0" encoding="UTF-8" standalone="no"?><!DOCTYPE svg PUBLIC "-//W3C//DTD SVG 1.1//EN" "http://www.w3.org/Graphics/SVG/1.1/DTD/svg11.dtd"><svg width="100%" height="100%" viewBox="0 0 810 490" version="1.1" xmlns="http://www.w3.org/2000/svg" xmlns:xlink="http://www.w3.org/1999/xlink" xml:space="preserve" xmlns:serif="http://www.serif.com/" style="fill-rule:evenodd;clip-rule:evenodd;stroke-linejoin:round;stroke-miterlimit:2;"><g id="nix"><path id="shadow" d="M86.821,486.645l0,-270.061l75.231,0l105.324,148.534l0,-148.534l71.374,0l0,270.061l-71.374,0l-109.182,-153.935l0,153.935l-71.373,0Zm317.515,0l0,-270.061l71.373,0l0,270.061l-71.373,0Zm262.692,-80.3l-52.732,80.04l-85.956,-0l99.174,-139.28l-96.09,-130.537l85.185,0l50.496,73.092l50.107,-73.092l85.185,0l-95.594,130.356l98.678,139.461l-85.956,-0l-52.497,-80.04Z" style="fill:#101015;"/><path id="text" d="M46.302,452.285l0,-270.062l75.232,0l105.324,148.534l0,-148.534l71.373,0l0,270.062l-71.373,0l-109.182,-153.935l0,153.935l-71.374,0Zm317.516,0l0,-270.062l71.373,0l0,270.062l-71.373,0Zm268.129,-81.021l-52.732,80.04l-85.956,-0l99.173,-139.28l-96.089,-130.537l85.185,-0l50.496,73.092l50.107,-73.092l85.185,-0l-95.595,130.356l98.679,139.461l-85.956,-0l-52.497,-80.04Z" style="fill:url(#_Linear1);"/><path id="outline" d="M4.716,130.473l100.512,0l80.044,112.882l0,-112.882l104.706,0l0,303.395l-96.652,0l-83.903,-118.295l0,118.295l-104.707,0l0,-303.395Zm16.667,286.728l71.373,0l0,-153.935l109.182,153.935l71.374,0l0,-270.062l-71.374,0l0,148.534l-105.324,-148.534l-75.231,0l0,270.062Zm300.849,-286.728l104.706,0l0,303.395l-104.706,0l0,-303.395Zm16.666,286.728l71.374,0l0,-270.062l-71.374,0l0,270.062Zm111.824,16.898l110.67,-156.477l-108.181,-147.495l126.293,0l41.921,60.535l41.07,-60.473l126.387,-0l-106.984,147.534l109.757,156.462l-126.877,-0.263l-43.369,-66.533l-44.188,66.71l-126.499,0Zm120.149,-287.283l-84.936,0l95.914,131.086l-99.211,139.702l85.478,-0l53.235,-80.37l52.415,80.316l85.715,0l-98.411,-139.963l95.325,-130.864l-85.217,-0l-49.878,73.333l-50.429,-73.24Z" style="fill:#fafafc;"/></g><g id="unseen"><path id="unseen-letter-u" d="M46.705,105.847c-26.472,0 -42.186,-15.005 -42.186,-40.062l0,-60.732l26.19,0l0,60.732c0,9.909 6.087,15.713 16.279,15.713c10.193,-0 16.28,-5.804 16.28,-15.713l0,-60.732l26.19,-0l0,60.732c0,25.057 -15.855,40.062 -42.753,40.062Z" style="fill:url(#_Linear2);"/><path id="unseen-letter-n" d="M105.03,104.149l0,-99.096l27.605,0l38.647,54.503l0,-54.503l26.19,0l0,99.096l-26.19,0l-40.063,-56.485l0,56.485l-26.189,0Z" style="fill:url(#_Linear3);"/><path id="unseen-letter-s" d="M249.143,105.847c-18.687,0 -36.949,-11.183 -38.931,-24.066l26.048,-7.219c1.699,4.813 5.804,8.494 12.458,8.777c5.238,0.141 10.051,-3.115 10.051,-8.07c0,-3.256 -2.265,-6.512 -7.361,-7.786l-14.865,-3.822c-15.43,-3.964 -24.349,-14.581 -24.349,-29.445c0,-19.395 13.59,-30.861 36.949,-30.861c18.545,0 30.578,6.795 37.373,23.499l-25.907,7.503c-0.991,-3.68 -4.813,-8.494 -11.466,-8.494c-6.371,0 -10.051,2.973 -10.051,8.353c0,3.397 2.972,6.087 8.21,7.361l15.006,3.822c15.148,3.823 24.066,15.856 24.066,30.012c0,19.536 -14.015,30.436 -37.231,30.436Z" style="fill:url(#_Linear4);"/><path id="unseen-letter-e1" d="M299.398,104.149l0,-99.096l66.394,0l0,24.066l-40.204,0l0,13.732l32.559,0l0,23.358l-32.559,0l0,13.874l41.195,0l0,24.066l-67.385,0Z" style="fill:url(#_Linear5);"/><path id="unseen-letter-e2" d="M382.355,104.149l0,-99.096l66.394,0l0,24.066l-40.205,0l0,13.732l32.56,0l0,23.358l-32.56,0l0,13.874l41.196,0l0,24.066l-67.385,0Z" style="fill:url(#_Linear6);"/><path id="unseen-letter-n1" serif:id="unseen-letter-n" d="M465.312,104.149l0,-99.096l27.605,0l38.647,54.503l0,-54.503l26.189,0l0,99.096l-26.189,0l-40.063,-56.485l0,56.485l-26.189,0Z" style="fill:url(#_Linear7);"/><path id="unseen-semicolon" d="M576.928,104.17l0,-44.47l44.454,0l0,40.841c0,23.033 -27.082,33.266 -27.082,33.266l-7.438,-8.559c-0.917,-1.058 -0.724,-2.666 0.399,-3.503c9.849,-7.363 9.846,-13.933 9.846,-13.933l0.005,-3.642l-20.184,0Zm0,-99.144l44.454,0l0,44.454l-44.454,0l0,-44.454Z" style="fill:url(#_Linear8);"/></g><defs><linearGradient id="_Linear1" x1="0" y1="0" x2="1" y2="0" gradientUnits="userSpaceOnUse" gradientTransform="matrix(1.64905e-14,269.311,-269.311,1.64905e-14,389.297,182.723)"><stop offset="0" style="stop-color:#ea33ed;stop-opacity:1"/><stop offset="1" style="stop-color:#d32ded;stop-opacity:1"/></linearGradient><linearGradient id="_Linear2" x1="0" y1="0" x2="1" y2="0" gradientUnits="userSpaceOnUse" gradientTransform="matrix(5.94558e-15,97.0987,-97.0987,5.94558e-15,602.008,6.9924)"><stop offset="0" style="stop-color:#f5f451;stop-opacity:1"/><stop offset="1" style="stop-color:#f2e64d;stop-opacity:1"/></linearGradient><linearGradient id="_Linear3" x1="0" y1="0" x2="1" y2="0" gradientUnits="userSpaceOnUse" gradientTransform="matrix(5.94558e-15,97.0987,-97.0987,5.94558e-15,602.008,6.9924)"><stop offset="0" style="stop-color:#f5f451;stop-opacity:1"/><stop offset="1" style="stop-color:#f2e64d;stop-opacity:1"/></linearGradient><linearGradient id="_Linear4" x1="0" y1="0" x2="1" y2="0" gradientUnits="userSpaceOnUse" gradientTransform="matrix(5.94558e-15,97.0987,-97.0987,5.94558e-15,602.008,6.9924)"><stop offset="0" style="stop-color:#f5f451;stop-opacity:1"/><stop offset="1" style="stop-color:#f2e64d;stop-opacity:1"/></linearGradient><linearGradient id="_Linear5" x1="0" y1="0" x2="1" y2="0" gradientUnits="userSpaceOnUse" gradientTransform="matrix(5.94558e-15,97.0987,-97.0987,5.94558e-15,602.008,6.9924)"><stop offset="0" style="stop-color:#f5f451;stop-opacity:1"/><stop offset="1" style="stop-color:#f2e64d;stop-opacity:1"/></linearGradient><linearGradient id="_Linear6" x1="0" y1="0" x2="1" y2="0" gradientUnits="userSpaceOnUse" gradientTransform="matrix(5.94558e-15,97.0987,-97.0987,5.94558e-15,602.008,6.9924)"><stop offset="0" style="stop-color:#f5f451;stop-opacity:1"/><stop offset="1" style="stop-color:#f2e64d;stop-opacity:1"/></linearGradient><linearGradient id="_Linear7" x1="0" y1="0" x2="1" y2="0" gradientUnits="userSpaceOnUse" gradientTransform="matrix(5.94558e-15,97.0987,-97.0987,5.94558e-15,602.008,6.9924)"><stop offset="0" style="stop-color:#f5f451;stop-opacity:1"/><stop offset="1" style="stop-color:#f2e64d;stop-opacity:1"/></linearGradient><linearGradient id="_Linear8" x1="0" y1="0" x2="1" y2="0" gradientUnits="userSpaceOnUse" gradientTransform="matrix(5.94558e-15,97.0987,-97.0987,5.94558e-15,602.008,6.9924)"><stop offset="0" style="stop-color:#f5f451;stop-opacity:1"/><stop offset="1" style="stop-color:#f2e64d;stop-opacity:1"/></linearGradient></defs></svg>